<?xml version="1.0" encoding="UTF-8"?>
<svg xmlns="http://www.w3.org/2000/svg" xmlns:xlink="http://www.w3.org/1999/xlink" id="Ebene_1" viewBox="0 0 200 100">
  <defs>
    <style>.cls-1{fill:none;}.cls-2{clip-path:url(#clippath);}.cls-3{fill:#1d1d1b;}</style>
    <clipPath id="clippath">
      <rect class="cls-1" y="23.33" width="200" height="53.35"></rect>
    </clipPath>
  </defs>
  <g class="cls-2">
    <path class="cls-3" d="m199.83,53.11c0-.34-.28-.51-.51-.51l-7.18-.51c.11-.68.11-1.35.11-2.15,0-14.58-11.87-26.45-26.51-26.45-12.55,0-23.17,8.82-25.83,20.57h-5.88c-.34,0-.51.11-.79.45l-1.36,1.81c-.28.34-.28.45-.28.51,0,.34.28.51.51.51l7.18.51c-.11.68-.11,1.47-.11,2.15,0,14.58,11.87,26.51,26.51,26.51,12.55,0,23.17-8.82,25.83-20.57h5.88c.34,0,.51-.11.79-.45l1.35-1.81c.28-.34.28-.45.28-.57m-57.42-5.09l19.56,1.19-8.14,5.65c-.45.28-.51.45-.51.62,0,.28.17.45.51.45h34.53c-2.54,10.06-11.81,17.52-22.66,17.52-12.89,0-23.4-10.51-23.4-23.4.06-.74.06-1.36.11-2.03m46.74,1.98c0,.68,0,1.3-.11,1.98l-19.55-1.19,8.14-5.65c.45-.28.51-.45.51-.62,0-.28-.17-.45-.51-.45h-34.53c2.54-10.06,11.81-17.52,22.66-17.52,12.89,0,23.4,10.51,23.4,23.45"></path>
    <path class="cls-3" d="m102.63,44.75h12.83v-3.05h-9.32v-12.32h-3.5v15.37Zm-34.08,0h13.22v-3.05h-9.72v-3.28h8.7v-2.83h-8.7v-3.16h9.66v-3.05h-13.17v15.37h0Zm-17.63-10.01c0-3.96-1.98-5.37-6.05-5.37h-8.7v15.37h3.51v-4.69h5.2c3.9,0,6.05-1.47,6.05-5.31m-3.39-.11c0,1.81-.85,2.37-2.83,2.37h-5.03v-4.8h5.03c1.87.06,2.83.68,2.83,2.43m-29.44,2.43c0-5.65-3.16-7.97-8.99-7.97S.17,31.41.17,37.06s3.16,8.03,8.99,8.03,8.93-2.37,8.93-8.03m-3.62,0c0,3.56-1.53,4.86-5.31,4.86s-5.31-1.3-5.31-4.86,1.53-4.8,5.31-4.8,5.31,1.19,5.31,4.8"></path>
    <path class="cls-3" d="m11.58,60.17c2.54-.68,3.79-2.43,3.79-4.97,0-3.62-2.54-5.2-7.06-5.2H.67v20.8h8.31c4.64,0,7.06-1.87,7.06-5.48.06-2.66-1.41-4.63-4.47-5.14m-3.5-8.65c4.29,0,5.48,1.58,5.48,3.79,0,2.71-1.75,4.12-4.97,4.12H2.48v-7.91h5.6Zm-5.6,17.63v-8.19h6.16c3.67,0,5.65,1.24,5.65,4.12s-2.03,4.01-5.54,4.01H2.48v.06Zm37.87,1.64l-8.19-20.8h-2.6l-8.59,20.8h1.81l2.49-6.1h10.68l2.37,6.1h2.03Zm-9.61-19.55l4.58,11.81h-9.38l4.8-11.81Zm31.48,17.63l-13.06-18.88h-2.54v20.8h1.75v-18.88l13.05,18.88h2.49v-20.8h-1.75v18.88h.06Zm14.18-8.87l10.85-10h-2.54l-10.17,9.72v-9.72h-1.81v20.8h1.81v-10.23l10.51,10.23h2.43l-11.08-10.8Z"></path>
  </g>
  <polygon class="cls-3" points="106.36 49.95 115.46 49.95 106.47 70.97 97.43 70.97 106.36 49.95"></polygon>
</svg>
