<?xml version="1.0" encoding="UTF-8"?>
<!-- Generator: Adobe Illustrator 27.2.0, SVG Export Plug-In . SVG Version: 6.00 Build 0)  -->
<svg xmlns="http://www.w3.org/2000/svg" xmlns:xlink="http://www.w3.org/1999/xlink" version="1.1" id="Ebene_1" x="0px" y="0px" viewBox="0 0 200 100" style="enable-background:new 0 0 200 100;" xml:space="preserve">
<style type="text/css">
	.st0{fill:#E6204E;}
	.st1{fill:#112C43;}
</style>
<g>
	<path class="st0" d="M199.5,38.2h-19c-2.1,0-3.9,1.6-4.2,3.7c-0.3,2.8-2.5,4.5-5.2,4.6c-2.9,0-5.3-2.4-5.3-5.3   c0-2.9,2.4-5.3,5.3-5.3c1.9,0,3.5,1,4.5,2.5c0.1,0.1,0.2,0.1,0.3,0c0.5-0.7,1.2-1.2,2-1.6c0.1-0.1,0.1-0.2,0.1-0.3   c-1.5-2.2-4-3.7-6.9-3.7c-4.6,0-8.3,3.7-8.3,8.3c0,4.6,3.7,8.3,8.3,8.3c4.2-0.1,7.7-2.9,8.2-7.3c0.1-0.6,0.6-1,1.2-1h16.2v2.3   c0,1.2-0.4,3-1.9,3c-1.5,0-1.9-1.8-1.9-3v-0.6c0-0.1-0.1-0.2-0.2-0.2h-2.6c-0.1,0-0.2,0.1-0.2,0.2v0.6c0,1.2-0.4,3-1.9,3   c-1.5,0-1.9-1.8-1.9-3v-0.6c0-0.1-0.1-0.2-0.2-0.2h-2.6c-0.1,0-0.2,0.1-0.2,0.2v0.6c0,2.9,1.6,6,4.9,6h0c1.3,0,2.5-0.5,3.4-1.5   c0.9,1,2,1.5,3.4,1.5h0c3.3,0,4.9-3.1,4.9-6v-5.1C199.7,38.2,199.6,38.2,199.5,38.2"></path>
	<path class="st1" d="M56.2,40.8c-5.1,0-8.6,3.7-8.6,9.1s3.6,9.1,8.8,9.1c2.6,0,4.9-0.6,7-2.3c0.1-0.1,0.1-0.2,0-0.3L61.8,54   c-0.1-0.1-0.2-0.1-0.3,0c-1.4,1.1-3.2,1.7-4.8,1.7c-3.3,0-5.3-2.5-5.3-5.6c0-3,1.4-5.9,4.8-5.9c2.4,0,4,1.6,4.4,4.3h-7.2   c-0.1,0-0.2,0.1-0.2,0.2c-0.2,0.8-0.2,1.7,0,2.5c0,0.1,0.1,0.2,0.2,0.2h10.8c0.1,0,0.2-0.1,0.2-0.2c0-0.4,0.1-0.8,0.1-1.2   C64.4,44.5,61,40.8,56.2,40.8"></path>
	<path class="st1" d="M37.5,40.8c-2.5,0-4.2,1-5.4,2.5v-1.9c0-0.1-0.1-0.2-0.2-0.2h-3.4c-0.1,0-0.2,0.1-0.2,0.2V66   c0,0.1,0.1,0.2,0.2,0.2h3.4c0.1,0,0.2-0.1,0.2-0.2V49c0-2.7,2.4-4.6,5-4.6c3.2,0,5.2,2.5,5.2,5.5s-2,5.5-5.2,5.5   c-1.2,0-2.2-0.3-3-0.9c-0.1-0.1-0.3,0-0.3,0.2v3.1c0,0.1,0.1,0.3,0.2,0.3c1,0.6,2.1,0.9,3.6,0.9c4.8,0,8.6-3.8,8.6-9.1   S42.4,40.8,37.5,40.8"></path>
	<path class="st1" d="M75.7,40.8c-1.8,0-3.9,0.5-5.3,2.5v-1.9c0-0.1-0.1-0.2-0.2-0.2h-3.4c-0.1,0-0.2,0.1-0.2,0.2v16.9   c0,0.1,0.1,0.2,0.2,0.2h3.4c0.1,0,0.2-0.1,0.2-0.2V49c0-3,2-4.6,4.5-4.6c2.4,0,4,1.6,4,4.5v9.4c0,0.1,0.1,0.2,0.2,0.2h3.4   c0.1,0,0.2-0.1,0.2-0.2V47.7C82.7,43.7,79.8,40.8,75.7,40.8"></path>
	<path class="st1" d="M14,32.9c-0.1,0-0.2,0.1-0.2,0.2v3.5c0,0.1,0.1,0.2,0.2,0.2c4.6,0.5,7.9,4.1,7.9,9.1c0,5.4-3.8,9.2-8.9,9.2   s-8.9-3.7-8.9-9.2c0-5,3.3-8.6,7.8-9.1c0.1,0,0.2-0.1,0.2-0.2v-3.5c0-0.1-0.1-0.2-0.2-0.2c-7.1,0.5-12.1,5.9-12.1,13   c0,7.5,5.5,13.1,13.2,13.1s13.2-5.5,13.2-13.1S21.2,33.4,14,32.9"></path>
	<path class="st1" d="M155,58.4c0.1,0.1,0.2,0.2,0.3,0.2h4.2c0.2,0,0.3-0.2,0.2-0.3l-7-8.8l6.9-7.8c0.1-0.1,0-0.3-0.2-0.3h-4.1   c-0.1,0-0.2,0.1-0.3,0.1l-5.6,6.4h-1.6V33.5c0-0.1-0.1-0.2-0.2-0.2h-3.4c-0.1,0-0.2,0.1-0.2,0.2v24.8c0,0.1,0.1,0.2,0.2,0.2h3.4   c0.1,0,0.2-0.1,0.2-0.2v-7.1h1.6L155,58.4L155,58.4z"></path>
	<path class="st1" d="M134.3,40.8c-1.8,0-3.9,0.5-5.3,2.5v-1.9c0-0.1-0.1-0.2-0.2-0.2h-3.4c-0.1,0-0.2,0.1-0.2,0.2v16.9   c0,0.1,0.1,0.2,0.2,0.2h3.4c0.1,0,0.2-0.1,0.2-0.2V49c0-3,2-4.6,4.5-4.6s4,1.6,4,4.5v9.4c0,0.1,0.1,0.2,0.2,0.2h3.4   c0.1,0,0.2-0.1,0.2-0.2V47.7C141.3,43.7,138.4,40.8,134.3,40.8"></path>
	<path class="st1" d="M122.3,41.3h-3.4c-0.1,0-0.2,0.1-0.2,0.2v1.9c-1.2-1.5-2.9-2.5-5.4-2.5c-4.8,0-8.6,3.8-8.6,9.1   s3.8,9.1,8.6,9.1c1.4,0,2.6-0.3,3.6-0.9c0.1-0.1,0.2-0.2,0.2-0.3v-3.1c0-0.2-0.2-0.3-0.3-0.2c-0.8,0.6-1.8,0.9-3,0.9   c-3.2,0-5.2-2.5-5.2-5.5s2-5.5,5.2-5.5c2.6,0,5,1.9,5,4.6v9.4c0,0.1,0.1,0.2,0.2,0.2h3.4c0.1,0,0.2-0.1,0.2-0.2V41.5   C122.5,41.4,122.4,41.3,122.3,41.3"></path>
	<path class="st1" d="M103.3,49.9c0-5.3-3.8-9.1-8.6-9.1c-1.4,0-2.6,0.3-3.6,0.9c-0.1,0.1-0.2,0.2-0.2,0.3v3.1   c0,0.2,0.2,0.3,0.3,0.2c0.8-0.6,1.8-0.9,3-0.9c3.2,0,5.2,2.5,5.2,5.5c0,3-2,5.5-5.2,5.5c-2.6,0-5-1.9-5-4.6V33.5   c0-0.1-0.1-0.2-0.2-0.2h-3.4c-0.1,0-0.2,0.1-0.2,0.2v24.8c0,0.1,0.1,0.2,0.2,0.2H89c0.1,0,0.2-0.1,0.2-0.2v-1.9   c1.2,1.5,2.9,2.5,5.4,2.5C99.5,59,103.3,55.2,103.3,49.9"></path>
</g>
</svg>
