<?xml version="1.0" encoding="UTF-8"?>
<!-- Generator: Adobe Illustrator 27.2.0, SVG Export Plug-In . SVG Version: 6.00 Build 0)  -->
<svg xmlns="http://www.w3.org/2000/svg" xmlns:xlink="http://www.w3.org/1999/xlink" version="1.1" id="Ebene_1" x="0px" y="0px" viewBox="0 0 200 100" style="enable-background:new 0 0 200 100;" xml:space="preserve">
<style type="text/css">
	.st0{fill:none;}
	.st1{fill:#010101;}
</style>
<g id="Layer_2">
	<g id="Layer_1-2">
		<rect x="-1" y="0.1" class="st0" width="200" height="100"></rect>
		<g id="layer1">
			<path id="path2" class="st1" d="M147.2,73.7c-0.5-1.7-0.7-3.5-0.6-5.3c-0.1-1.8,0.1-3.6,0.6-5.4c1.1-3.2,3.6-4.9,7.3-4.9     s6.1,1.7,7.2,4.5c0.1,0.2,0.1,0.3-0.1,0.4l-3.9,1.7c-0.1,0.1-0.3,0-0.4-0.1c0,0,0-0.1,0-0.1c-0.4-1.1-1.4-1.9-2.6-1.9     c-1.1-0.1-2.1,0.6-2.4,1.7c-0.2,0.6-0.3,1.2-0.3,4s0.1,3.3,0.3,3.9c0.3,1.1,1.3,1.8,2.4,1.7c1.2,0,2.2-0.7,2.6-1.9     c0-0.1,0.2-0.2,0.3-0.2c0,0,0.1,0,0.1,0l3.9,1.7c0.2,0.1,0.2,0.2,0.1,0.4c-1.1,2.8-3.6,4.5-7.2,4.5S148.3,77,147.2,73.7     L147.2,73.7z M138.3,78V58.8c0-0.2,0.1-0.3,0.3-0.3c0,0,0,0,0,0h4.6c0.2,0,0.3,0.1,0.3,0.3c0,0,0,0,0,0V78c0,0.2-0.1,0.3-0.3,0.3     c0,0,0,0,0,0h-4.6C138.5,78.3,138.4,78.2,138.3,78C138.3,78,138.3,78,138.3,78z M121.7,78V58.8c0-0.2,0.1-0.3,0.3-0.3     c0,0,0,0,0,0h4.6c0.2,0,0.3,0.1,0.3,0.3c0,0,0,0,0,0v14.8c0,0.1,0.1,0.2,0.2,0.2h8.5c0.2,0,0.3,0.1,0.3,0.3c0,0,0,0,0,0v4     c0,0.2-0.1,0.3-0.3,0.3c0,0,0,0,0,0H122C121.8,78.3,121.7,78.2,121.7,78C121.7,78,121.7,78,121.7,78L121.7,78z M108.4,74.2     c0,0.1,0.1,0.2,0.2,0.2h2.4c1.6,0,2.4-0.8,2.4-2.2s-0.8-2.2-2.4-2.2h-2.4c-0.1,0-0.2,0-0.2,0.2L108.4,74.2L108.4,74.2z      M108.6,66.4h2.1c1.6,0,2.4-0.7,2.4-2c0-1.3-0.8-2-2.4-2h-2.1c-0.1,0-0.2,0.1-0.2,0.2v3.7C108.4,66.4,108.5,66.5,108.6,66.4     L108.6,66.4z M103.3,78V58.8c0-0.2,0.1-0.3,0.3-0.3c0,0,0,0,0,0h8.2c4.5,0,6.5,2.1,6.5,5.3c0.1,1.8-0.9,3.4-2.4,4.3V68     c1.8,0.8,2.9,2.6,2.8,4.5c0,3.9-2.8,5.7-7,5.7h-8.1C103.4,78.3,103.2,78.2,103.3,78C103.2,78,103.2,78,103.3,78L103.3,78z      M91.8,78.6c-4.9,0-8-2.7-8-8V58.8c0-0.2,0.1-0.3,0.3-0.3c0,0,0,0,0,0h4.6c0.1,0,0.3,0.1,0.3,0.2c0,0,0,0,0,0v12.2     c0,2,1.1,3.1,2.8,3.1s2.8-1.1,2.8-3.1V58.8c0-0.1,0.1-0.3,0.2-0.3c0,0,0,0,0,0h4.6c0.1,0,0.3,0.1,0.3,0.2c0,0,0,0,0,0v11.8     C99.7,75.9,96.5,78.6,91.8,78.6L91.8,78.6z M73.5,67.3c1.2,0.2,2.3-0.7,2.5-1.9c0-0.1,0-0.3,0-0.4c0-1.4-0.9-2.2-2.5-2.2h-2.6     c-0.1,0-0.2,0-0.2,0.1c0,0,0,0,0,0v4.1c0,0.1,0.1,0.2,0.2,0.2L73.5,67.3z M70.4,78.2h-4.6c-0.1,0-0.3-0.1-0.3-0.2c0,0,0,0,0,0     V58.8c0-0.2,0.1-0.3,0.3-0.3c0,0,0,0,0,0h8c4.9,0,7.4,2.7,7.4,6.6c0,3.8-2.6,6.6-7.4,6.6h-2.9c-0.1,0-0.2,0-0.2,0.1c0,0,0,0,0,0     V78C70.7,78.1,70.6,78.2,70.4,78.2C70.4,78.3,70.4,78.3,70.4,78.2z M48.7,78V58.8c0-0.2,0.1-0.3,0.3-0.3c0,0,0,0,0,0h13.1     c0.2,0,0.3,0.1,0.3,0.3c0,0,0,0,0,0v3.8c0,0.2-0.1,0.3-0.3,0.3c0,0,0,0,0,0h-8c-0.1,0-0.2,0-0.2,0.1c0,0,0,0,0,0v3     c0,0.1,0,0.2,0.2,0.2h6.6c0.2,0,0.3,0.1,0.3,0.3c0,0,0,0,0,0v3.7c0,0.2-0.1,0.3-0.3,0.3c0,0,0,0,0,0h-6.6c-0.1,0-0.2,0.1-0.2,0.2     v3.2c0,0.1,0,0.2,0.1,0.2c0,0,0,0,0,0h8c0.2,0,0.3,0.1,0.3,0.3c0,0,0,0,0,0V78c0,0.2-0.1,0.3-0.3,0.3c0,0,0,0,0,0H49     C48.9,78.3,48.8,78.2,48.7,78C48.7,78,48.7,78,48.7,78z M38,67c1.2,0.1,2.2-0.7,2.3-1.8c0.1-1.2-0.7-2.2-1.8-2.3     c-0.2,0-0.3,0-0.5,0h-2.8c-0.1,0-0.2,0.1-0.2,0.2v3.8c0,0.1,0,0.2,0.1,0.2c0,0,0,0,0,0H38z M45.7,78.2h-5.1     c-0.2,0-0.4-0.1-0.4-0.3l-3-6.8h-1.9c-0.1,0-0.2,0.1-0.2,0.2V78c0,0.1-0.1,0.3-0.2,0.3c0,0,0,0,0,0h-4.6c-0.2,0-0.3-0.1-0.3-0.3     c0,0,0,0,0,0V58.8c0-0.2,0.1-0.3,0.3-0.3c0,0,0,0,0,0h8.2c4.6,0,7.2,2.7,7.2,6.4c0.1,2.3-1.2,4.5-3.3,5.5l3.7,7.5     c0.1,0.1,0,0.2-0.1,0.3C45.9,78.2,45.8,78.3,45.7,78.2L45.7,78.2z M106.2,54.2V35c0-0.1,0.1-0.3,0.2-0.3c0,0,0,0,0,0h13.1     c0.1,0,0.3,0.1,0.3,0.2c0,0,0,0,0,0v3.8c0,0.1-0.1,0.3-0.2,0.3c0,0,0,0,0,0h-8c-0.1,0-0.2,0.1-0.2,0.2v3c0,0.1,0.1,0.2,0.2,0.2     h6.6c0.2,0,0.3,0.1,0.3,0.3c0,0,0,0,0,0v3.7c0,0.2-0.1,0.3-0.3,0.3c0,0,0,0,0,0h-6.6c-0.1,0-0.2,0-0.2,0.1c0,0,0,0,0,0V50     c0,0.1,0,0.2,0.1,0.2c0,0,0,0,0,0h8c0.2,0,0.3,0.1,0.3,0.3c0,0,0,0,0,0v3.8c0,0.1-0.1,0.3-0.2,0.3c0,0,0,0,0,0h-13.1     C106.3,54.5,106.2,54.4,106.2,54.2C106.2,54.2,106.2,54.2,106.2,54.2L106.2,54.2z M92.4,49.8c0,0.1,0,0.2,0.1,0.2c0,0,0,0,0,0     h1.6c1.8,0,2.8-0.5,3.3-1.9c0.3-1.1,0.4-2.3,0.3-3.5c0.1-1.2,0-2.3-0.3-3.5c-0.5-1.4-1.5-1.9-3.3-1.9h-1.6c-0.1,0-0.2,0-0.2,0.1     c0,0,0,0,0,0L92.4,49.8z M87.2,54.2V35c0-0.2,0.1-0.3,0.3-0.3c0,0,0,0,0,0h7.8c3.5,0,6.1,1.5,7.1,4.5c0.5,1.7,0.7,3.6,0.6,5.4     c0.1,1.8-0.1,3.6-0.6,5.4c-1,3.1-3.6,4.5-7.1,4.5h-7.8C87.4,54.5,87.3,54.4,87.2,54.2C87.2,54.2,87.2,54.2,87.2,54.2z M73.4,46.9     h3.9l-1.8-6.2h-0.1L73.4,46.9z M65.7,54.2L72.7,35c0-0.2,0.2-0.3,0.4-0.3h4.8c0.2,0,0.3,0.1,0.4,0.3L85,54.2c0,0.2,0,0.3-0.2,0.3     H80c-0.2,0-0.3-0.1-0.4-0.3l-0.9-3h-6.6l-1,3c0,0.2-0.2,0.3-0.4,0.3H66C65.8,54.5,65.7,54.4,65.7,54.2L65.7,54.2z M56.3,43.2     c1.2,0.1,2.2-0.7,2.3-1.8c0.1-1.2-0.7-2.2-1.8-2.3c-0.2,0-0.3,0-0.5,0h-2.8c-0.1,0-0.2,0.1-0.2,0.2v3.9c0,0.1,0,0.2,0.2,0.2     L56.3,43.2L56.3,43.2z M64,54.5H59c-0.2,0-0.4-0.1-0.4-0.3l-3-6.8h-2c-0.1,0-0.2,0.1-0.2,0.2v6.6c0,0.2-0.1,0.3-0.3,0.3     c0,0,0,0,0,0h-4.6c-0.2,0-0.3-0.1-0.3-0.3c0,0,0,0,0,0V35c0-0.2,0.1-0.3,0.3-0.3c0,0,0,0,0,0h8.2c4.6,0,7.2,2.6,7.2,6.4     c0.1,2.3-1.2,4.5-3.3,5.5l3.7,7.5c0.1,0.1,0.1,0.2,0,0.3C64.2,54.5,64.1,54.5,64,54.5L64,54.5z M40.2,54.5h-4.6     c-0.2,0-0.3-0.1-0.3-0.3c0,0,0,0,0,0V39.4c0-0.1,0-0.2-0.2-0.2h-4.9c-0.2,0-0.3-0.1-0.3-0.3c0,0,0,0,0,0v-4     c0-0.2,0.1-0.3,0.3-0.3c0,0,0,0,0,0h15.4c0.1,0,0.3,0.1,0.3,0.2c0,0,0,0,0,0v4c0,0.2-0.1,0.3-0.3,0.3c0,0,0,0,0,0h-4.9     c-0.1,0-0.2,0-0.2,0.2v14.8C40.5,54.4,40.4,54.5,40.2,54.5C40.2,54.5,40.2,54.5,40.2,54.5L40.2,54.5z M167.3,33.2     c0.4-0.1,0.7-0.5,0.8-0.9l0,0v-9.7c0-0.6-0.4-1-1-1c-0.1,0-0.1,0-0.2,0l-14,3.3c-0.4,0.1-0.9,0.1-1.3,0l-6.3-2     c-0.4-0.1-0.9-0.1-1.3,0l-14.3,3.3c-0.4,0.1-0.7,0.5-0.8,0.9v9.7c0,0.6,0.4,1,1,1c0.1,0,0.1,0,0.2,0l13.9-3.3     c0.4-0.1,0.9-0.1,1.3,0l6.3,2c0.4,0.1,0.9,0.1,1.3,0L167.3,33.2L167.3,33.2z M167.3,47.6c0.4-0.1,0.7-0.5,0.8-0.9l0,0V37     c0-0.6-0.4-1-1-1h-0.2l-14,3.3c-0.4,0.1-0.9,0.1-1.3,0l-6.3-2c-0.4-0.1-0.9-0.2-1.3-0.1l-14.3,3.4c-0.4,0.1-0.7,0.5-0.7,0.9v9.7     c0,0.6,0.4,1,1,1c0.1,0,0.1,0,0.2,0l13.9-3.3c0.4-0.1,0.9-0.1,1.3,0l6.3,2c0.4,0.1,0.9,0.1,1.3,0L167.3,47.6z"></path>
		</g>
	</g>
</g>
</svg>
